<svg xmlns="http://www.w3.org/2000/svg" version="1.1" xmlns:xlink="http://www.w3.org/1999/xlink" xmlns:svgjs="http://svgjs.dev/svgjs" viewBox="0 0 800 800"><defs><filter id="ssspot-filter" x="-20%" y="-20%" width="140%" height="140%" filterUnits="objectBoundingBox" primitiveUnits="userSpaceOnUse" color-interpolation-filters="sRGB">
	<feTurbulence type="turbulence" baseFrequency="0.022 0.218" numOctaves="2" seed="217" stitchTiles="stitch" x="0%" y="0%" width="100%" height="100%" result="turbulence"></feTurbulence>
	<feGaussianBlur stdDeviation="0 3" x="0%" y="0%" width="100%" height="100%" in="turbulence" edgeMode="duplicate" result="blur"></feGaussianBlur>
	<feDisplacementMap in="SourceGraphic" in2="blur" scale="32" xChannelSelector="R" yChannelSelector="B" x="0%" y="0%" width="100%" height="100%" result="displacementMap"></feDisplacementMap>
</filter></defs><rect width="100%" height="100%" fill="hsl(0, 0%, 100%)"></rect><g fill="hsl(344, 48%, 49%)" filter="url(#ssspot-filter)"><circle r="5.083900191819964" cx="12.724072820733086" cy="291.560735990793" opacity="0.10343457471855035"></circle><circle r="7.822855385302543" cx="610.3095128522186" cy="587.3388651300185" opacity="0.9566101709219815"></circle><circle r="8.27220345061721" cx="556.0577134466813" cy="594.4581272902033" opacity="0.7698490725726524"></circle><circle r="6.27183072312726" cx="120.09399681856887" cy="609.5708411862616" opacity="0.4530307143327613"></circle><circle r="5.853131365217886" cx="348.62872074320734" cy="193.75756797726646" opacity="0.3102735922383929"></circle><circle r="4.238671460687217" cx="46.06338210920223" cy="653.9604681397527" opacity="0.4879710251059767"></circle><circle r="5.873950358388883" cx="696.1673086943474" cy="429.9587655493717" opacity="0.7283208497110187"></circle><circle r="5.347257587151452" cx="422.5208742868362" cy="601.6927640443031" opacity="0.3514271281230691"></circle><circle r="4.462714380008047" cx="370.4667920896331" cy="132.9035738661242" opacity="0.45564240126953093"></circle><circle r="7.80023562815853" cx="250.58817377878592" cy="611.1579230213774" opacity="0.4571547733492032"></circle><circle r="7.233745799378804" cx="448.0024736721426" cy="725.1727057407937" opacity="0.929233813273575"></circle><circle r="4.8975362576254895" cx="109.8538055178255" cy="82.6517265370682" opacity="0.9276779972998238"></circle><circle r="4.368751647608203" cx="450.48801616893434" cy="393.0815876047316" opacity="0.43348259983076654"></circle><circle r="7.646690568522533" cx="252.34973425628857" cy="516.369862077888" opacity="0.4226082171752402"></circle><circle r="5.190944279006262" cx="133.64847815706318" cy="761.0627479710273" opacity="0.24202818774590515"></circle><circle r="3.765309670767157" cx="448.2218125192563" cy="370.66318596802734" opacity="0.7162356730795306"></circle><circle r="7.234860726339784" cx="89.07790303350211" cy="285.9103196002222" opacity="0.7786597433657851"></circle><circle r="3.755304087079615" cx="215.7058292591445" cy="50.5224569479343" opacity="0.37038406507947197"></circle><circle r="4.73500792250747" cx="85.16721200513867" cy="361.3936123705998" opacity="0.3702057851938424"></circle><circle r="4.440582529197006" cx="375.68036741145846" cy="58.64689138951094" opacity="0.7681817269225572"></circle><circle r="9.830871970988827" cx="554.3813144363652" cy="22.580760499226113" opacity="0.43001743049224606"></circle><circle r="5.975383813773676" cx="401.37899256902836" cy="724.9484716260183" opacity="0.4378031831085375"></circle><circle r="5.1117592929554885" cx="198.58885004201272" cy="91.50629592188027" opacity="0.9023727707467823"></circle><circle r="7.999321286904447" cx="136.76171773653434" cy="221.65262516102405" opacity="0.4260556567717121"></circle><circle r="4.919168804729193" cx="387.24216402093515" cy="758.284673323046" opacity="0.8331876635258011"></circle><circle r="4.69914483157727" cx="401.0288824479156" cy="669.4327132408985" opacity="0.24132379680984986"></circle><circle r="9.785526356169955" cx="292.49020551010835" cy="780.2549299872575" opacity="0.9105876223669761"></circle><circle r="6.972769358337469" cx="55.76849177614384" cy="177.9983845508374" opacity="0.9387967078431699"></circle><circle r="6.245727157594269" cx="711.2409528133057" cy="576.2393192971165" opacity="0.18145810938226603"></circle><circle r="6.669628125999317" cx="212.33451257618384" cy="669.0441407934705" opacity="0.15773028045983778"></circle><circle r="7.129546442724466" cx="402.37425873565326" cy="259.93748131490247" opacity="0.30617137644121145"></circle><circle r="5.7962996347738525" cx="788.1897332492512" cy="346.184975525832" opacity="0.12909690480569755"></circle><circle r="4.596377289721398" cx="18.74858149736933" cy="30.65719946129515" opacity="0.39379991080051624"></circle><circle r="3.165286071343264" cx="587.79886146842" cy="575.7471923600081" opacity="0.9867944313667567"></circle><circle r="6.204980468929792" cx="497.7330988093105" cy="599.1937294272685" opacity="0.40676347989669215"></circle><circle r="10.598128657495451" cx="421.1560824234008" cy="99.84687054415205" opacity="0.9668392831761232"></circle><circle r="3.850719475181998" cx="584.6456862049216" cy="100.1803538412381" opacity="0.4882031908245772"></circle><circle r="9.200580966612954" cx="43.8278787233449" cy="610.643239774463" opacity="0.27359497832330254"></circle><circle r="4.227927877430889" cx="187.7930433318239" cy="54.54321694342437" opacity="0.6473734258656955"></circle><circle r="6.546437662502114" cx="583.029117912666" cy="372.52342774898995" opacity="0.38507853566536754"></circle><circle r="5.732494488755437" cx="91.30187552846553" cy="476.62228348948855" opacity="0.10025533961831612"></circle><circle r="8.043641645305001" cx="291.24186085984496" cy="52.39564821270237" opacity="0.1184375588988511"></circle><circle r="3.951979446741266" cx="467.6092408531931" cy="554.997280258957" opacity="0.637686723883139"></circle><circle r="6.357840782722626" cx="285.83752150661303" cy="423.2007395411804" opacity="0.750490886975295"></circle><circle r="9.436623674279284" cx="214.35587213110887" cy="720.1618024531865" opacity="0.1327306157872142"></circle><circle r="6.3032544362702385" cx="500.87968564272336" cy="734.7520974705963" opacity="0.3606704554674871"></circle><circle r="4.271478140328837" cx="717.8498918700589" cy="489.98724185148234" opacity="0.47853757384409945"></circle><circle r="8.697376883486331" cx="779.6465459774547" cy="741.587703789043" opacity="0.7774870174030751"></circle><circle r="4.806431354176829" cx="532.3084889805015" cy="130.10456564014248" opacity="0.7631585742932542"></circle><circle r="7.471421960165014" cx="722.6428327076769" cy="338.36801934933413" opacity="0.6110314094432903"></circle><circle r="3.561696596401022" cx="199.54687278924501" cy="411.41173315903785" opacity="0.3686510174210891"></circle><circle r="7.531446831898339" cx="395.69676936167775" cy="621.1481058548649" opacity="0.6963330317411419"></circle><circle r="4.758039951034336" cx="544.1396004614737" cy="399.26979380968254" opacity="0.6300979862896542"></circle><circle r="3.829108121057574" cx="15.488387330354012" cy="53.188355735286514" opacity="0.5528700621219037"></circle><circle r="8.848319767586368" cx="749.0620620582181" cy="499.70356929481386" opacity="0.8490771677385838"></circle><circle r="7.898969531883989" cx="650.7397102110519" cy="394.9444505230112" opacity="0.5580201075148746"></circle><circle r="6.465103025557073" cx="428.0016401670096" cy="671.9099049112785" opacity="0.5154857698829387"></circle><circle r="8.318303208036776" cx="698.6227765957783" cy="21.90893413991489" opacity="0.726881073760742"></circle><circle r="11.321721988485637" cx="581.6463066425246" cy="694.5706587360708" opacity="0.5877247625373859"></circle><circle r="5.740229190961578" cx="627.6211581641983" cy="53.063528103574534" opacity="0.9978744108088698"></circle><circle r="7.1221718415735245" cx="379.5466581705772" cy="282.5867240913839" opacity="0.17745895176382434"></circle><circle r="6.380476444467254" cx="412.03212853478965" cy="16.705799117548786" opacity="0.9243959565711882"></circle><circle r="3.8181238845258325" cx="396.57985040411995" cy="195.6674220281352" opacity="0.5851668877750841"></circle><circle r="7.326443102755516" cx="689.7919817322261" cy="89.37336906443218" opacity="0.37640173516944775"></circle><circle r="7.797809775824897" cx="454.67365015839033" cy="475.9109366554342" opacity="0.6835217179621308"></circle><circle r="4.48529856178739" cx="44.20394655693386" cy="471.22252464392966" opacity="0.6321051642418585"></circle><circle r="5.416507336480336" cx="676.0615474672408" cy="469.7943935337154" opacity="0.15460959939174462"></circle><circle r="3.707014251254352" cx="148.82699317398982" cy="389.9076199885382" opacity="0.22051115298599439"></circle><circle r="11.577521858891036" cx="273.3648181181563" cy="467.40297972447513" opacity="0.18201399114324243"></circle><circle r="7.6068391732413065" cx="84.27734494790634" cy="435.7206077645153" opacity="0.8165752383879518"></circle><circle r="3.334917048564486" cx="789.7079220826994" cy="68.21281533138453" opacity="0.6542331348804603"></circle><circle r="4.683930892109785" cx="110.22015990410998" cy="39.65969118420916" opacity="0.48142027418922007"></circle><circle r="6.684258590000214" cx="627.3014054521941" cy="526.1911716967724" opacity="0.22072325510531812"></circle><circle r="7.509922942362537" cx="750.5566657700261" cy="254.71757092999792" opacity="0.214837353647082"></circle><circle r="7.623528328808002" cx="640.3518911215881" cy="198.52721402544077" opacity="0.6020992703804918"></circle><circle r="8.16305003204854" cx="613.3418767228424" cy="730.4886047805954" opacity="0.3436622473950375"></circle><circle r="4.073233168201648" cx="788.4486874684081" cy="694.6198057201485" opacity="0.8719112040548977"></circle><circle r="5.086478142448902" cx="82.29948276995172" cy="724.6643348112204" opacity="0.34330039300514714"></circle><circle r="7.007803916811513" cx="716.0568645333461" cy="390.04429322241606" opacity="0.6687726481112554"></circle><circle r="6.7153937481646615" cx="51.88182648112197" cy="21.98631131891949" opacity="0.7329224029242768"></circle><circle r="4.824601477770328" cx="578.4094024899478" cy="412.42277064842864" opacity="0.1505623591515795"></circle><circle r="6.6119794047015485" cx="642.1352221219047" cy="163.37415945249418" opacity="0.5149014801350158"></circle><circle r="6.168281148006967" cx="565.3680274194589" cy="557.1461127461899" opacity="0.32783407270295517"></circle><circle r="6.1312180840388875" cx="12.42177696149217" cy="340.2681532846886" opacity="0.23914270341198202"></circle><circle r="9.583602159710368" cx="318.2817072907231" cy="459.73620784395075" opacity="0.436345102116777"></circle><circle r="7.738342817275647" cx="246.22567891477277" cy="416.14637692335145" opacity="0.6283708563197218"></circle><circle r="8.530093530208411" cx="15.744499951514577" cy="636.9329550593329" opacity="0.2901141298170553"></circle><circle r="5.2580381945889" cx="242.59323657959106" cy="359.74962986275796" opacity="0.20508923497048548"></circle><circle r="5.039756265915862" cx="486.18182341599066" cy="272.7694751251899" opacity="0.44090891941615973"></circle><circle r="7.997667181331149" cx="517.7154668646381" cy="32.25118020822329" opacity="0.5333290881892476"></circle><circle r="6.61397553650311" cx="349.4417309809153" cy="499.0072838546903" opacity="0.9119035554819364"></circle><circle r="7.065680847745127" cx="71.89071250676434" cy="100.88457238289728" opacity="0.5255289332306545"></circle><circle r="5.931408567218085" cx="456.9210920140277" cy="277.9771560623137" opacity="0.3005998044111575"></circle><circle r="4.822490877823425" cx="325.2439791295127" cy="210.74442230573234" opacity="0.19429562598574707"></circle><circle r="5.826239955992245" cx="137.41493661725727" cy="660.8969142029963" opacity="0.224619023601514"></circle><circle r="5.338482261515142" cx="380.9049383145713" cy="97.77512087717407" opacity="0.8171075806823019"></circle><circle r="4.9931117463630645" cx="291.70329327532295" cy="340.2598585711258" opacity="0.5432024177434649"></circle><circle r="8.630346098586557" cx="450.5079246127804" cy="128.89507165640256" opacity="0.4650509274264879"></circle><circle r="4.678960064870582" cx="467.7845045788086" cy="204.653139318763" opacity="0.21731922842205126"></circle><circle r="5.604642529833227" cx="354.6846978941616" cy="443.5218394221812" opacity="0.2818517794430199"></circle><circle r="7.637525060852027" cx="218.27297070722165" cy="152.2143039126843" opacity="0.1456295727005451"></circle><circle r="7.929922614063958" cx="421.4498190849927" cy="351.30178355270635" opacity="0.35415484759021243"></circle><circle r="7.173076186864768" cx="596.1013843464699" cy="154.9568526478812" opacity="0.6292315877013022"></circle><circle r="8.507609529780117" cx="612.7990284652842" cy="233.67117612857885" opacity="0.39729552306257643"></circle><circle r="4.4101368873960105" cx="130.38864152049155" cy="179.9459860243983" opacity="0.34684606875128465"></circle><circle r="4.632606624240671" cx="194.4795021467578" cy="615.2458605418825" opacity="0.504807536551291"></circle><circle r="6.301848171215333" cx="559.7102129841556" cy="286.61235586747716" opacity="0.7422258919007834"></circle><circle r="6.823406293407143" cx="34.59056324137065" cy="779.7715573862944" opacity="0.9128729623521314"></circle><circle r="6.803359507795616" cx="749.9368920004754" cy="397.6930681731825" opacity="0.8251585318678123"></circle><circle r="5.997001750285579" cx="242.64793926353738" cy="110.88657626549778" opacity="0.8949391437529637"></circle><circle r="5.868037167035625" cx="268.52310584333674" cy="225.32805056560377" opacity="0.950122743453141"></circle><circle r="7.284276826692166" cx="102.73735836145254" cy="246.2000841657802" opacity="0.4738682366027688"></circle><circle r="6.687640751234582" cx="448.8515258068043" cy="441.2542231101188" opacity="0.13178285470020623"></circle><circle r="6.784740256836758" cx="500.9207387411097" cy="237.68088125990627" opacity="0.3202651987276374"></circle><circle r="6.463128722137741" cx="228.71759133128134" cy="321.2473846853657" opacity="0.4013880132820957"></circle><circle r="5.32427894040199" cx="740.2012295167809" cy="294.11627379894924" opacity="0.3038997802451563"></circle><circle r="7.937813436952755" cx="226.54614265843742" cy="244.79223758475013" opacity="0.4232551279470189"></circle><circle r="4.803817623224775" cx="498.49252259877665" cy="146.4658336511652" opacity="0.7807727278360426"></circle><circle r="5.246468359441839" cx="534.733494687516" cy="690.9551549578565" opacity="0.6172406158649161"></circle><circle r="10.349917964723396" cx="595.6881263287991" cy="23.020531219550744" opacity="0.8589750372837593"></circle><circle r="5.192081770393488" cx="451.0251469654042" cy="415.3235288530054" opacity="0.7265628012266316"></circle><circle r="7.27511450992154" cx="228.52770226433577" cy="485.30052181753746" opacity="0.690838566576024"></circle><circle r="6.83339736257723" cx="357.56813290466755" cy="729.3749850099032" opacity="0.9887767023604439"></circle><circle r="7.953462386261922" cx="504.19859757573414" cy="75.73572829744877" opacity="0.8454051541978986"></circle><circle r="7.432775324649093" cx="167.9893763197434" cy="495.5521199703225" opacity="0.2655091504525138"></circle><circle r="4.801759720947661" cx="303.79678898068954" cy="551.7229831740007" opacity="0.35240481996098405"></circle><circle r="5.911020420543636" cx="330.19328555151606" cy="299.38798249519834" opacity="0.5660336178129649"></circle><circle r="7.7737379973471175" cx="777.1819049879697" cy="174.38662175980608" opacity="0.6682370876338192"></circle><circle r="6.856264307825994" cx="561.228500488657" cy="782.5643982980486" opacity="0.12555237218436177"></circle><circle r="3.834471549571066" cx="786.8291759422569" cy="599.4813198436301" opacity="0.5074621341717567"></circle><circle r="6.326568753963541" cx="513.4963419864554" cy="416.44090356859965" opacity="0.8894720849063865"></circle><circle r="6.666352268883198" cx="541.3789270824939" cy="490.9258154449845" opacity="0.2266979985646864"></circle><circle r="4.259241126125419" cx="475.6380440834944" cy="157.7961687471923" opacity="0.8997869731440861"></circle><circle r="6.707496396790697" cx="418.2110179011286" cy="441.06320786171426" opacity="0.2659748534244085"></circle><circle r="4.709943690821027" cx="649.8939255522245" cy="461.42750650415604" opacity="0.7014815512331172"></circle><circle r="7.129973418534405" cx="678.050196439882" cy="779.8542297626752" opacity="0.9661999307091048"></circle><circle r="4.98993801310775" cx="172.28252343466826" cy="670.4878382454813" opacity="0.8470315890252856"></circle><circle r="4.046145216725203" cx="480.99019340871996" cy="407.8634463167487" opacity="0.21317345617184724"></circle><circle r="6.048474368896144" cx="546.2092707976278" cy="353.46826530616875" opacity="0.7463243433523481"></circle><circle r="5.888089610751945" cx="760.8759071215953" cy="692.217200925948" opacity="0.2951769655709826"></circle><circle r="5.326479918869052" cx="14.918694565633562" cy="550.5520923599969" opacity="0.5591413157093246"></circle><circle r="9.275800188773019" cx="603.908725989164" cy="471.50925779413706" opacity="0.3148979765584416"></circle><circle r="5.228441891790979" cx="422.6843508475499" cy="750.9612637321783" opacity="0.9840988422230984"></circle><circle r="7.408370337077424" cx="678.9493858658423" cy="144.51784095198101" opacity="0.45295669951818895"></circle><circle r="6.796629561503868" cx="710.7361585443439" cy="773.0641504938106" opacity="0.11474305569030527"></circle><circle r="6.868321104028281" cx="448.7618449729836" cy="165.7545896542279" opacity="0.2785933401230352"></circle><circle r="4.39385738826761" cx="398.5262482745084" cy="166.95826999267422" opacity="0.533786730125834"></circle><circle r="8.060094749006847" cx="450.0037936556684" cy="523.9606458461202" opacity="0.5833261518250916"></circle><circle r="8.611594859897105" cx="139.39785836188116" cy="61.91879531519397" opacity="0.31313108155968217"></circle><circle r="4.336819154890321" cx="307.9708864127947" cy="381.761547787958" opacity="0.4066442549800914"></circle><circle r="8.406626970273944" cx="779.6935020323358" cy="309.817830359235" opacity="0.350579214126293"></circle><circle r="4.263265351711916" cx="188.72312563728033" cy="435.9797476071647" opacity="0.8767704908177878"></circle><circle r="5.15810603325884" cx="201.01430083030266" cy="351.246814113074" opacity="0.1583675151901392"></circle><circle r="5.5989263188839775" cx="675.8602695052841" cy="298.12372283979107" opacity="0.8327689106910764"></circle><circle r="8.239789306428708" cx="121.66903676268589" cy="359.3922404226965" opacity="0.28059456066186217"></circle><circle r="4.575191247629471" cx="621.3663184858158" cy="768.5858718716639" opacity="0.8589370792996278"></circle><circle r="4.560538062031568" cx="656.7758693739333" cy="61.98480158459305" opacity="0.7249133017442364"></circle><circle r="6.1805722162297645" cx="737.0837793674932" cy="463.06959738603877" opacity="0.46377474268395513"></circle><circle r="7.354629784674204" cx="517.0120343736028" cy="573.8441312863321" opacity="0.8847845488856467"></circle><circle r="11.2962682171483" cx="725.6798321954159" cy="118.5115767980123" opacity="0.861321584181173"></circle><circle r="8.516236077546578" cx="644.0672803911467" cy="651.413901424031" opacity="0.448475004605535"></circle><circle r="4.879749497300466" cx="484.7691405095487" cy="438.7192052257813" opacity="0.28467759796458947"></circle><circle r="5.445687590008043" cx="26.443040031213414" cy="411.70076364354884" opacity="0.11644548845634511"></circle><circle r="4.995253628017125" cx="415.320325060372" cy="702.544876065124" opacity="0.7077819065758634"></circle><circle r="10.805261460990373" cx="773.8393165679375" cy="221.6642260647172" opacity="0.8344518971837456"></circle><circle r="3.483040503230022" cx="490.3931798357335" cy="380.5081299327948" opacity="0.7904169787469056"></circle><circle r="10.47047661519139" cx="604.8073307603019" cy="655.592216892643" opacity="0.5999161511100697"></circle><circle r="5.409471424835209" cx="473.0134578938625" cy="624.6639809127614" opacity="0.4305062269645541"></circle><circle r="5.684655190497245" cx="699.9657042497709" cy="631.9135256313838" opacity="0.482418074944016"></circle><circle r="7.688047043690096" cx="590.452717891581" cy="509.4178924622472" opacity="0.4751232839769789"></circle><circle r="6.375713453899277" cx="489.2602479129305" cy="309.7013607206758" opacity="0.4658343625836786"></circle><circle r="6.927062883451546" cx="94.35656464973779" cy="322.74849897870394" opacity="0.4853036441370068"></circle><circle r="7.505638123397407" cx="297.59063261744865" cy="187.80387082380946" opacity="0.36313521695998363"></circle><circle r="5.996488028276054" cx="556.2498984187104" cy="67.41946384142503" opacity="0.13221404632950318"></circle><circle r="5.65675340202568" cx="679.1723064807836" cy="589.1803499659867" opacity="0.3378813907510127"></circle><circle r="6.078716757792467" cx="84.5128643767155" cy="207.89279236955352" opacity="0.457228408106505"></circle><circle r="6.1277563649458315" cx="424.6050479617468" cy="501.53579282010605" opacity="0.39497095883479827"></circle><circle r="7.62449453953386" cx="65.72239423657561" cy="399.6428913062629" opacity="0.8095475639156681"></circle><circle r="8.228286891735484" cx="336.0630313887846" cy="587.6245669214412" opacity="0.5228175520490965"></circle><circle r="5.3823969077364495" cx="478.31864973535943" cy="672.8673268142119" opacity="0.7359669249900336"></circle><circle r="4.227625280706763" cx="33.59370318889968" cy="273.08008233788604" opacity="0.33539439055291964"></circle><circle r="7.333980360955351" cx="85.35514605955743" cy="16.31737838021601" opacity="0.7875702731036284"></circle><circle r="6.896838890018455" cx="174.26428795439045" cy="634.6127520577157" opacity="0.2557823340035675"></circle><circle r="9.175027060814788" cx="146.35804011183902" cy="582.411472796308" opacity="0.9977996789210635"></circle><circle r="4.715475681883212" cx="487.4286312584689" cy="354.07618799371323" opacity="0.4572105625822649"></circle><circle r="7.140270167467174" cx="509.44008220198157" cy="460.3820955457933" opacity="0.3739883362429859"></circle><circle r="6.480344643042168" cx="449.90541106831245" cy="691.629689648393" opacity="0.5265825770012307"></circle><circle r="3.8801028808969935" cx="471.7587510840521" cy="384.55401557736366" opacity="0.519794241915515"></circle><circle r="7.112502124827337" cx="109.13153501785855" cy="396.8716718674837" opacity="0.5866403878906902"></circle><circle r="6.609672523257334" cx="665.9449889250577" cy="732.8623220362178" opacity="0.17974855471173612"></circle><circle r="5.9687695200760995" cx="302.415486952575" cy="233.0336619103825" opacity="0.6111569752148187"></circle><circle r="6.156942381561683" cx="617.2074833082487" cy="87.0283887234921" opacity="0.9074858735240606"></circle><circle r="7.66604917836197" cx="771.065777826714" cy="128.8568724055615" opacity="0.8965403653974174"></circle><circle r="8.511433535679227" cx="277.15972277490624" cy="308.77217551861656" opacity="0.9193488290454823"></circle><circle r="5.859396174063384" cx="539.5710130112885" cy="240.87797641804178" opacity="0.10995924217671166"></circle><circle r="8.147324485284386" cx="431.31471106507064" cy="191.95239378628727" opacity="0.26120938606724486"></circle><circle r="5.3665985892955685" cx="364.1593240774232" cy="168.07106116745962" opacity="0.1422507326216576"></circle><circle r="5.735279055049215" cx="119.29750378286971" cy="159.0411402682905" opacity="0.7434843462799926"></circle><circle r="5.942207868813049" cx="496.6607022846514" cy="186.48280619754" opacity="0.32534042555727477"></circle><circle r="6.09318557544634" cx="397.0118043599595" cy="464.9509979525187" opacity="0.6988115079575942"></circle><circle r="4.570670981805211" cx="268.58865065538106" cy="81.71490807816767" opacity="0.6221800187989267"></circle><circle r="4.454376464662204" cx="723.3071403721082" cy="654.646956213274" opacity="0.37558969555668"></circle><circle r="4.26334950007025" cx="133.58689160708232" cy="784.6209584661668" opacity="0.5809613357641632"></circle><circle r="10.69148691826975" cx="387.6366677179651" cy="569.9837875518854" opacity="0.12019715430360448"></circle><circle r="7.194637683025961" cx="340.9318669281932" cy="63.43391289225704" opacity="0.21498910612165886"></circle><circle r="4.628298816275357" cx="587.4275100103064" cy="338.852471247351" opacity="0.11313647023476363"></circle><circle r="10.439080518174723" cx="556.4744012791557" cy="448.47884573809847" opacity="0.5757166347588611"></circle><circle r="4.743347183952369" cx="731.7689126537301" cy="682.0512096493575" opacity="0.7131630746109898"></circle><circle r="5.4251030890557566" cx="326.3000647123953" cy="525.6346415172535" opacity="0.5976804081323566"></circle><circle r="6.85025146702562" cx="22.926247776848736" cy="687.6143407296953" opacity="0.44035021622351955"></circle><circle r="6.150427457100871" cx="536.3398204983085" cy="97.25945117256222" opacity="0.44168434789179745"></circle><circle r="6.002394764456194" cx="290.94492928347233" cy="157.76363861263533" opacity="0.9868512887989291"></circle><circle r="6.256052641584075" cx="435.98439888868256" cy="637.4698686012177" opacity="0.9245836997677591"></circle><circle r="5.911074369474424" cx="436.8508830066384" cy="780.6426584409745" opacity="0.9971464391838171"></circle><circle r="9.577272229523754" cx="62.86452838797479" cy="255.36798414150746" opacity="0.6906938690046549"></circle><circle r="10.212155553256643" cx="317.3441567058802" cy="622.5167643225185" opacity="0.6375416208586837"></circle><circle r="7.556950739444688" cx="175.14796767184882" cy="756.4922666110291" opacity="0.749551648552155"></circle><circle r="5.237590855583323" cx="482.535632946741" cy="523.8500884345838" opacity="0.5535646773733337"></circle><circle r="8.689124027378076" cx="621.8628571176757" cy="126.6791658069919" opacity="0.15368956120131935"></circle><circle r="9.738367500592261" cx="476.39204185265567" cy="22.217688371483117" opacity="0.6117945183194646"></circle><circle r="3.5198617640984344" cx="596.7689266196368" cy="788.7843773822553" opacity="0.4786735794512542"></circle><circle r="4.909936512685558" cx="448.75710584937565" cy="318.45336224238696" opacity="0.722005717429147"></circle><circle r="7.417479595129315" cx="568.7325442726185" cy="125.60572746512554" opacity="0.8366287002659839"></circle><circle r="7.47448960993089" cx="642.6924419617438" cy="256.06302434322225" opacity="0.7506998256800066"></circle><circle r="7.594003153760618" cx="226.68090625038573" cy="447.20148818279046" opacity="0.2733846635578309"></circle><circle r="5.507548154442308" cx="225.6926586542228" cy="81.18006266901382" opacity="0.3429657442806523"></circle><circle r="5.3263035759710995" cx="341.65920684635427" cy="111.07958738061217" opacity="0.7859425780902413"></circle><circle r="4.847889174112763" cx="414.232056570556" cy="392.5680291993585" opacity="0.7426431445329221"></circle><circle r="4.923937255717234" cx="626.5300544685587" cy="435.6145830516117" opacity="0.49506884008028385"></circle><circle r="3.7311887204368483" cx="16.20038072802594" cy="492.2512793065028" opacity="0.10091075708475902"></circle><circle r="8.088833118034426" cx="105.098624401276" cy="647.0025038444224" opacity="0.4092421052534818"></circle><circle r="5.031490913016319" cx="593.178394471545" cy="305.5441657492702" opacity="0.9533127665235002"></circle><circle r="8.1871394040735" cx="781.5117785302903" cy="272.1950987308323" opacity="0.17136680723703404"></circle><circle r="6.645832130304324" cx="492.17215575789953" cy="116.14127286777172" opacity="0.8840971571935535"></circle><circle r="2.3892067346093695" cx="19.0024632274685" cy="9.096300069426784" opacity="0.698866575441517"></circle><circle r="5.649098695072036" cx="630.8514224471729" cy="560.8082905043125" opacity="0.2653368252094279"></circle><circle r="6.207900606313215" cx="181.69033842732117" cy="226.77221967925692" opacity="0.13772406557887884"></circle><circle r="8.191115595797271" cx="358.76947419387596" cy="19.158624135491827" opacity="0.8564759651027284"></circle><circle r="5.7254780680279715" cx="243.9535864601591" cy="555.8375906808586" opacity="0.1506641388826353"></circle><circle r="4.9682386825644755" cx="703.272863424862" cy="520.6830166283618" opacity="0.5786793566268006"></circle><circle r="10.34589293258814" cx="180.29221487056523" cy="314.9753363230353" opacity="0.9992642796499955"></circle><circle r="9.1366266298568" cx="781.3896939765699" cy="529.8080363467782" opacity="0.47029001110166313"></circle><circle r="6.894637600208482" cx="79.82745048014903" cy="56.46935938323234" opacity="0.40931382880784095"></circle><circle r="4.150375780735959" cx="390.3836919355394" cy="224.37947928902145" opacity="0.26678729809263235"></circle><circle r="5.861962703280074" cx="617.5657069000422" cy="356.1652320852222" opacity="0.6642892917420168"></circle><circle r="8.270394058996043" cx="464.9785455624006" cy="756.0598822483339" opacity="0.46783852224383937"></circle><circle r="6.596542124565559" cx="500.8935592917832" cy="766.2841709366911" opacity="0.7429577714868473"></circle><circle r="6.560580899557307" cx="519.7190246171249" cy="273.8206255593489" opacity="0.512585457861696"></circle><circle r="5.791943526181368" cx="750.2214812565529" cy="437.2981432863291" opacity="0.40058261022434005"></circle><circle r="4.294925660787252" cx="680.8166865307709" cy="346.5886288155199" opacity="0.5146138479358517"></circle><circle r="11.041580633475503" cx="310.4948367597346" cy="736.5857053106693" opacity="0.5615434509972775"></circle><circle r="9.874060541748523" cx="730.3582035812893" cy="166.9000885596531" opacity="0.23979344129112684"></circle><circle r="5.830870477463206" cx="651.8063301306786" cy="588.2149669756476" opacity="0.10198650520050355"></circle><circle r="6.921707285066963" cx="16.153780587049688" cy="81.99193950855137" opacity="0.8449881971130582"></circle><circle r="5.102348648149011" cx="47.99413510548125" cy="65.74900874435154" opacity="0.8651944099077985"></circle><circle r="8.91870611090742" cx="762.1756177871997" cy="576.0053078759786" opacity="0.8824210217540139"></circle><circle r="5.38678896896034" cx="191.92415288950755" cy="474.96988894024844" opacity="0.4826097017071487"></circle><circle r="5.314585023104043" cx="424.81160387749287" cy="293.25633228299097" opacity="0.9038482570835449"></circle><circle r="7.1069875910317855" cx="47.248003882230556" cy="361.96183452214825" opacity="0.8857436956195534"></circle><circle r="5.731297310369127" cx="504.38187598093737" cy="638.4075787247417" opacity="0.6397204593441893"></circle><circle r="7.396337244172127" cx="550.5452350962406" cy="195.84844371490308" opacity="0.9274728616587768"></circle><circle r="4.167781048601905" cx="126.27991902182663" cy="494.06418014975566" opacity="0.6326912512677411"></circle><circle r="3.890095518814195" cx="346.9378433311614" cy="765.3754974048053" opacity="0.8385767242956579"></circle><circle r="5.718055856282769" cx="700.2135509715948" cy="191.89168161546436" opacity="0.5289199548604809"></circle><circle r="4.5537908185298415" cx="647.4301532199089" cy="776.1144564053068" opacity="0.14636961202847334"></circle><circle r="7.037037916701556" cx="181.5136193738213" cy="120.03694001127624" opacity="0.17222681850877006"></circle><circle r="7.007299698304861" cx="661.9644194827822" cy="684.2432023518842" opacity="0.9624566441643956"></circle><circle r="12.130469415982136" cx="158.55382384476465" cy="712.3162139116107" opacity="0.9845380402133042"></circle><circle r="8.62266761993263" cx="283.41861607396396" cy="580.3948909969172" opacity="0.7095797534028105"></circle><circle r="5.080497341454692" cx="240.43778306952072" cy="28.793448538391992" opacity="0.631560490209937"></circle><circle r="7.21734427543775" cx="363.6443983622847" cy="310.1003519817235" opacity="0.37129472654045537"></circle><circle r="6.864620353528286" cx="140.86439887224148" cy="260.4038642600875" opacity="0.846833979424852"></circle><circle r="3.603705491291767" cx="342.70239876209615" cy="789.8973199290169" opacity="0.8526158250156065"></circle><circle r="3.4093669289523687" cx="221.86297178330787" cy="13.905663047361287" opacity="0.13355521164757556"></circle><circle r="4.075686381930429" cx="641.6218142673657" cy="14.792075492299254" opacity="0.1353635900642105"></circle><circle r="3.238453073542059" cx="21.69462063253955" cy="523.130049622189" opacity="0.8374375113789854"></circle><circle r="5.0821662275294575" cx="649.1308199247925" cy="352.0284098372121" opacity="0.2627350181657536"></circle><circle r="5.46293697988837" cx="446.1978293126204" cy="49.64907663298419" opacity="0.9073460586964874"></circle><circle r="3.4087653746567748" cx="157.94186672928268" cy="791.1350238728529" opacity="0.589207813335992"></circle><circle r="9.381379409214974" cx="433.7716345162047" cy="565.1066966848591" opacity="0.33585199879705846"></circle><circle r="8.25056283882908" cx="606.5334743659071" cy="272.3511599016436" opacity="0.2040219988231793"></circle><circle r="6.434006724970968" cx="671.6865238528277" cy="223.86013090495763" opacity="0.2762071530896204"></circle><circle r="3.5008230865719083" cx="684.5504597247636" cy="322.7135614227277" opacity="0.5065562768006039"></circle><circle r="3.635261139432472" cx="531.7018009881351" cy="538.4063069945599" opacity="0.8993226763772271"></circle><circle r="5.140645264610232" cx="165.72680155009482" cy="535.6009211999328" opacity="0.23521313821620457"></circle><circle r="9.123814905770619" cx="463.85491849031513" cy="86.83059103579934" opacity="0.40001115620987826"></circle><circle r="6.828054403655184" cx="722.364491594069" cy="223.25830347556834" opacity="0.13922871695945432"></circle><circle r="8.507119947151637" cx="592.2511446561584" cy="63.38804324096553" opacity="0.38681812300445484"></circle><circle r="6.104036220677545" cx="402.8433172911632" cy="533.3448296764576" opacity="0.23054067251290625"></circle><circle r="7.796908958826614" cx="328.79017656917233" cy="264.79400755028877" opacity="0.6158225743898949"></circle><circle r="4.936644273370286" cx="561.9214916765172" cy="320.2409395245815" opacity="0.6297262075817317"></circle><circle r="8.012284907490681" cx="756.0735845471694" cy="343.89811302755027" opacity="0.7207780643051606"></circle><circle r="3.1581441718988703" cx="458.2956612434896" cy="657.0664097701492" opacity="0.15071790845056326"></circle><circle r="10.402487533195991" cx="317.7621343463547" cy="680.1796544622206" opacity="0.8827856195866101"></circle><circle r="5.441099987789754" cx="231.72231899059116" cy="283.5278777037973" opacity="0.38657669163937614"></circle><circle r="7.495919647527878" cx="266.8427629158315" cy="722.6263395324428" opacity="0.21079688461869595"></circle><circle r="5.51555590407998" cx="712.8137205022484" cy="716.0551362040369" opacity="0.9988450956759996"></circle><circle r="6.542198408082935" cx="559.6132617463677" cy="163.85281449423337" opacity="0.27920789730335566"></circle><circle r="5.089375784472211" cx="272.7214005720489" cy="110.9302725926816" opacity="0.6837745046583245"></circle><circle r="4.232755299312082" cx="519.414061416357" cy="207.78524232463727" opacity="0.8905435587734521"></circle><circle r="8.384460511578379" cx="408.18947101862807" cy="57.745233273079045" opacity="0.48155715446091807"></circle><circle r="5.635126054758082" cx="672.8462177137267" cy="546.0539127910316" opacity="0.6208972932633318"></circle><circle r="6.80044876614185" cx="64.27521428162792" cy="576.6396258869516" opacity="0.2544813916496698"></circle><circle r="7.657957800814498" cx="50.188427162319115" cy="734.8049162316288" opacity="0.956798620895627"></circle><circle r="4.112599712127036" cx="521.625304886739" cy="788.796385660987" opacity="0.9275189722617924"></circle><circle r="6.918400347362892" cx="781.5757364041268" cy="478.8119243540793" opacity="0.9988596610697763"></circle><circle r="4.487607942670912" cx="132.82777143620376" cy="14.884816565749745" opacity="0.4799779564109494"></circle><circle r="6.069698665831554" cx="558.6437949491093" cy="528.0505056288766" opacity="0.8949571610506751"></circle><circle r="7.275043044382318" cx="723.6718202284641" cy="61.60433037071859" opacity="0.21925088875609577"></circle><circle r="5.016069624543708" cx="162.2758632166398" cy="360.9341417535501" opacity="0.7757131224720522"></circle><circle r="4.987446122336739" cx="77.79829075571436" cy="148.2702475436215" opacity="0.7992408364982498"></circle><circle r="6.106575814329014" cx="508.21426076574375" cy="672.1591040460505" opacity="0.129172638898188"></circle><circle r="5.852381194774551" cx="461.1932913749237" cy="344.4327164534188" opacity="0.9326890658237793"></circle><circle r="6.654478174391084" cx="651.3522671086464" cy="102.49134750187692" opacity="0.5852491087023208"></circle><circle r="8.15722111672477" cx="759.7973843543153" cy="633.0335536935921" opacity="0.842501754166422"></circle><circle r="4.719675953277957" cx="692.8907358889619" cy="262.7027843625529" opacity="0.33250631667196806"></circle><circle r="6.015941981353599" cx="409.8885381105136" cy="139.75013746259768" opacity="0.5885493021620528"></circle><circle r="7.7258178787314" cx="737.2972650652916" cy="540.7854331673282" opacity="0.904709046829691"></circle><circle r="4.472372731490701" cx="127.65203057945298" cy="425.47290787114235" opacity="0.860622372065409"></circle><circle r="6.0328885083406085" cx="252.88275864173153" cy="53.73909054006443" opacity="0.1966275702774083"></circle><circle r="4.460342961362246" cx="162.58056550065302" cy="32.580549164039034" opacity="0.7258552709294138"></circle><circle r="6.77836274933763" cx="213.57945014587136" cy="121.57535856480195" opacity="0.37082900763734916"></circle><circle r="8.570751703886689" cx="614.2570824231248" cy="403.09294921969325" opacity="0.4674661146426956"></circle><circle r="4.965550850012761" cx="474.87980927927435" cy="788.2361709591225" opacity="0.3772127721061649"></circle><circle r="7.581511642583447" cx="366.8909871776269" cy="655.2906329300087" opacity="0.8449068783806072"></circle><circle r="7.829985563430551" cx="203.6666265493764" cy="530.5114847360067" opacity="0.47754323150542277"></circle><circle r="5.544865931009159" cx="629.8696725245964" cy="616.6079078617231" opacity="0.6728756794034982"></circle><circle r="8.66336707457225" cx="359.041917041433" cy="618.7018623737991" opacity="0.38940002373277527"></circle><circle r="7.313436911237438" cx="65.90507750187973" cy="506.43234788457465" opacity="0.7990886795245659"></circle><circle r="5.897515597814012" cx="353.4206706758091" cy="239.07333276274287" opacity="0.12344681250585543"></circle><circle r="8.0880472820121" cx="19.727482963374012" cy="164.14346419018264" opacity="0.8597562004089232"></circle><circle r="8.433613748960472" cx="336.96132484615663" cy="344.5746451761267" opacity="0.11892127143996588"></circle><circle r="5.97907266324362" cx="257.5378756094002" cy="145.42513889408943" opacity="0.25016690668907504"></circle><circle r="6.568628521541931" cx="597.8035525114723" cy="193.11533184766887" opacity="0.4838084477970037"></circle><circle r="4.453611279988492" cx="159.5622111623567" cy="413.7028056409068" opacity="0.8173715916554797"></circle><circle r="7.142514180843379" cx="249.88592580899538" cy="177.7997847550499" opacity="0.8716149254095629"></circle><circle r="8.931379397159898" cx="246.47696177215673" cy="772.7322815158465" opacity="0.45706485709546874"></circle><circle r="6.314656173348086" cx="272.95089166762494" cy="15.131086809541712" opacity="0.28551317780090835"></circle><circle r="5.9577061802866655" cx="719.309243688541" cy="258.47723892210996" opacity="0.7790788090215509"></circle><circle r="6.941377588162556" cx="663.2286891541853" cy="505.44967184249475" opacity="0.8118256261198842"></circle><circle r="4.811904930372524" cx="328.7654950696612" cy="410.7099915584034" opacity="0.281439023704469"></circle><circle r="8.499722845957379" cx="574.3784582879068" cy="221.1347471451938" opacity="0.4320290480226965"></circle><circle r="7.519081848793398" cx="563.949367825861" cy="734.5891569446225" opacity="0.8824561289351277"></circle><circle r="7.7302114211937845" cx="529.972578229514" cy="307.0343077878333" opacity="0.6201793763040504"></circle><circle r="4.820676188661926" cx="26.425506303064076" cy="443.8518984870217" opacity="0.777159375624525"></circle><circle r="8.689930272570315" cx="197.32182278490208" cy="186.6139830381786" opacity="0.38985624631793636"></circle><circle r="4.906150729437563" cx="220.79940493678916" cy="597.489271904069" opacity="0.5387458540059102"></circle><circle r="6.300684062188438" cx="183.20008408352786" cy="384.9293802718126" opacity="0.9506650569813099"></circle><circle r="4.619544280904737" cx="586.6582190861299" cy="757.6260836146024" opacity="0.5273680478176718"></circle><circle r="4.790926185344181" cx="353.9314394774152" cy="551.8347896799543" opacity="0.5607975698399875"></circle><circle r="4.2058436294951145" cx="517.3928519022794" cy="378.3048224510625" opacity="0.3384721967470793"></circle><circle r="5.025467419494879" cx="624.0960684096701" cy="302.97680957424217" opacity="0.4519993285627354"></circle><circle r="4.05441760027714" cx="674.6153509745886" cy="639.4586581423259" opacity="0.873643767433684"></circle><circle r="4.803729064942183" cx="534.5163060390379" cy="720.5091115007525" opacity="0.8676008636117108"></circle><circle r="7.40659691209774" cx="160.61882727211957" cy="446.83936236138214" opacity="0.6740426916160374"></circle><circle r="5.447384770778695" cx="764.8906779613159" cy="782.2195096197748" opacity="0.9575274725291741"></circle><circle r="7.366821564737185" cx="783.934615783031" cy="23.88566967371896" opacity="0.8809173322479066"></circle><circle r="7.760414275699981" cx="114.23189845551845" cy="739.8499017287513" opacity="0.1356824506526486"></circle><circle r="6.463790020939753" cx="254.2926844741282" cy="670.6819374385594" opacity="0.8717676529915601"></circle><circle r="4.624837740682022" cx="383.47633271543816" cy="494.8465567359056" opacity="0.8653046752769186"></circle><circle r="5.487910921985951" cx="390.05041950815945" cy="336.66599318803736" opacity="0.6213276331030824"></circle><circle r="4.856719919299093" cx="491.88304003431443" cy="495.37935179426" opacity="0.5889526669936943"></circle><circle r="4.536312803270461" cx="234.7652422621184" cy="207.59613451823944" opacity="0.8622342228969261"></circle><circle r="7.53967545464999" cx="284.80006463487257" cy="271.5329784179253" opacity="0.4968590452356475"></circle><circle r="7.037605751737544" cx="67.38953313467924" cy="684.2920293149594" opacity="0.17260268755744507"></circle><circle r="8.665978257789055" cx="52.819417132254756" cy="543.6291767943194" opacity="0.35493624999450035"></circle><circle r="5.57574758587348" cx="32.52631639932306" cy="323.8679471951065" opacity="0.3324698607592037"></circle><circle r="6.53211403814596" cx="523.9561236661413" cy="162.9716634549168" opacity="0.8802630188653017"></circle><circle r="9.067736864591607" cx="736.3722746690661" cy="740.5874900018161" opacity="0.41026523064461906"></circle><circle r="5.558447327096926" cx="745.1571550738144" cy="18.983026568117882" opacity="0.6324196182663586"></circle><circle r="7.044837609799899" cx="148.94908815721348" cy="102.91585137265999" opacity="0.9215184005506112"></circle><circle r="8.1861770896661" cx="627.9283483255305" cy="695.2056573211778" opacity="0.2771956643157234"></circle><circle r="4.876334580446572" cx="83.22668145853471" cy="606.6909820586482" opacity="0.7268960419635471"></circle><circle r="4.748990130543241" cx="531.7378065770365" cy="615.9654433723022" opacity="0.8397088497489655"></circle><circle r="7.940893678912703" cx="183.03223398133983" cy="271.3450120839339" opacity="0.6003160297041725"></circle><circle r="8.388799577046544" cx="98.81940755856095" cy="548.0526769442072" opacity="0.6294030840800067"></circle><circle r="7.9969627218187185" cx="28.02526240978399" cy="116.31060052781228" opacity="0.7019515738013502"></circle><circle r="7.7693477480279505" cx="311.92775228623907" cy="90.45608108766066" opacity="0.6089252588317118"></circle><circle r="10.592263684772595" cx="364.8354992788287" cy="382.33844042088595" opacity="0.3250574059026101"></circle><circle r="4.894900898469217" cx="187.94707310945986" cy="14.63377558425347" opacity="0.6286082688376615"></circle><circle r="4.623434405070745" cx="511.3891762017903" cy="528.1358959497438" opacity="0.5608614535114065"></circle><circle r="6.3914050739777215" cx="295.5999666218394" cy="125.8932525193677" opacity="0.2736823487889702"></circle><circle r="5.1536527999868476" cx="512.6812498816075" cy="338.75724321499496" opacity="0.28029156729783644"></circle><circle r="5.597683363371553" cx="153.96550969695394" cy="193.62649885955318" opacity="0.273056166848327"></circle><circle r="7.529809738612219" cx="295.63513412237063" cy="505.307910084444" opacity="0.7468816577837062"></circle><circle r="5.51636610170249" cx="700.6873526293554" cy="470.2041949130146" opacity="0.9137718901077457"></circle><circle r="8.23158446545413" cx="386.1884729431468" cy="420.0241847105286" opacity="0.9905163882670601"></circle><circle r="4.983155131020442" cx="15.15287975187947" cy="380.9150296358853" opacity="0.6507478131379557"></circle><circle r="7.35515618700084" cx="785.0152281265499" cy="432.39851815326716" opacity="0.7543112036300382"></circle><circle r="4.286759143328494" cx="396.8563492874918" cy="786.9272800552783" opacity="0.9801819160584939"></circle><circle r="9.511773003872804" cx="88.76710306814404" cy="780.1368910866182" opacity="0.5629010749686412"></circle><circle r="8.985840768673118" cx="434.8499438208677" cy="236.79267098363664" opacity="0.16831654034322635"></circle><circle r="5.248201531027373" cx="577.9520445958616" cy="628.2504737433211" opacity="0.49911889784023433"></circle><circle r="6.580246780555677" cx="142.42594235091417" cy="331.63133262536655" opacity="0.5249900627440713"></circle><circle r="8.80699308311636" cx="549.4811014245039" cy="656.4604642391078" opacity="0.33402831045930204"></circle><circle r="5.208076851966203" cx="271.42668767281293" cy="376.25809084453135" opacity="0.2151272843651048"></circle><circle r="4.918284725990798" cx="645.4787713597373" cy="317.64141911833076" opacity="0.368687173338478"></circle><circle r="8.437532388785607" cx="108.20355014569257" cy="691.8212189395558" opacity="0.2577397415776483"></circle><circle r="7.941137097855594" cx="365.1245908644715" cy="694.0979589586597" opacity="0.7053656417523154"></circle><circle r="6.389733110624092" cx="168.9497869448961" cy="152.20196672469802" opacity="0.29307059759617415"></circle><circle r="6.821726154054975" cx="193.11562341863004" cy="571.771561108719" opacity="0.5075129928906548"></circle><circle r="4.257795969857795" cx="707.378783089252" cy="299.44139934536304" opacity="0.8015475411259492"></circle><circle r="6.600319143375211" cx="759.9819522165805" cy="64.88707262304794" opacity="0.9646190978131414"></circle><circle r="6.89651658037264" cx="572.3564732800415" cy="258.0246008788353" opacity="0.8338096118282787"></circle><circle r="4.311104347556905" cx="132.00950252032536" cy="460.34944774071585" opacity="0.4897965732612962"></circle><circle r="7.6101641701892735" cx="284.08936826519755" cy="641.254076592475" opacity="0.17502177378716272"></circle><circle r="4.80413416660486" cx="130.43003714094866" cy="529.4856773848173" opacity="0.7791640934551248"></circle><circle r="5.248640087999981" cx="133.00870755406592" cy="123.72993160621733" opacity="0.9888844469513453"></circle><circle r="7.540505521694148" cx="58.26872578089222" cy="316.2733920333728" opacity="0.12114456291073897"></circle><circle r="7.330817984725984" cx="729.2239409359964" cy="611.6156384586391" opacity="0.4221299161367874"></circle><circle r="6.951102189234218" cx="663.9677814882245" cy="275.6142711208766" opacity="0.7104427046333471"></circle><circle r="5.342616761484134" cx="14.392726836857744" cy="737.025470173621" opacity="0.8857920313417674"></circle><circle r="6.960919397568963" cx="469.0093606161731" cy="240.47108120141635" opacity="0.5669859684374768"></circle><circle r="7.624561787038533" cx="784.6706693715286" cy="651.3730868937741" opacity="0.9812308380530325"></circle><circle r="5.134174676018077" cx="205.18642089202376" cy="778.6178589816413" opacity="0.898877862450589"></circle><circle r="5.257868051238235" cx="169.66649852001368" cy="80.14188780668388" opacity="0.4483100055524414"></circle><circle r="5.747675041929584" cx="689.7603027887307" cy="691.9844288986365" opacity="0.974786056593455"></circle><circle r="5.3024789058467565" cx="218.21014738858958" cy="387.242844938348" opacity="0.7036170428342575"></circle><circle r="5.453938306749283" cx="17.50022381896794" cy="585.4717160417603" opacity="0.11919659345119628"></circle><circle r="6.626265691735479" cx="316.3793419909042" cy="23.92520091635796" opacity="0.9842516973045371"></circle><circle r="5.713811683862859" cx="493.48449176087337" cy="555.1579919361563" opacity="0.41607137374488057"></circle><circle r="4.391965353075936" cx="483.82286110550945" cy="708.5437712255801" opacity="0.8293561223496431"></circle><circle r="5.705717936515524" cx="536.7683221007845" cy="760.7852044630131" opacity="0.9843833069580232"></circle><circle r="4.967228427450624" cx="460.6985428444831" cy="592.6583886272879" opacity="0.8265457694388549"></circle><circle r="7.628726335353343" cx="24.23503438096756" cy="224.41104414966804" opacity="0.13198031112845882"></circle><circle r="5.361718106765741" cx="103.15329207429147" cy="125.14014441774127" opacity="0.918541825824637"></circle><circle r="4.922041277299168" cx="670.9000177605402" cy="38.66024916225226" opacity="0.12062361815463445"></circle><circle r="6.867880335336512" cx="684.6588367895039" cy="380.0768472779773" opacity="0.7714900442049882"></circle><circle r="5.564419452560931" cx="328.80770004551874" cy="150.02204210443216" opacity="0.11026398554762747"></circle><circle r="8.09970217337883" cx="133.3897352159299" cy="297.29876534320846" opacity="0.4563938012593248"></circle><circle r="5.566629933371938" cx="781.0507685446759" cy="383.46861011258284" opacity="0.3345722068045953"></circle><circle r="4.555611635839547" cx="73.72291729387068" cy="643.0698592694467" opacity="0.1320053443841633"></circle><circle r="3.8541223576169097" cx="778.5923974764818" cy="98.53153666975464" opacity="0.6399308115522272"></circle></g></svg>